<mxfile host="65bd71144e">
    <diagram id="fBRQ1C9LCKRWP2Iw2NHm" name="Page-1">
        <mxGraphModel dx="1572" dy="642" grid="1" gridSize="10" guides="1" tooltips="1" connect="1" arrows="1" fold="1" page="1" pageScale="1" pageWidth="850" pageHeight="1100" background="#ffffff" math="0" shadow="0">
            <root>
                <mxCell id="0"/>
                <mxCell id="1" parent="0"/>
                <mxCell id="2" value="Операция" style="rounded=0;whiteSpace=wrap;html=1;fillColor=#FF66FF;strokeColor=#000000;strokeWidth=2;fontSize=18;fontStyle=1;fontColor=#000000;" parent="1" vertex="1">
                    <mxGeometry y="120" width="200" height="80" as="geometry"/>
                </mxCell>
                <mxCell id="3" value="Двоична пирамида" style="rounded=0;whiteSpace=wrap;html=1;fillColor=#FF66FF;strokeColor=#000000;strokeWidth=2;fontSize=18;fontStyle=1;fontColor=#000000;" parent="1" vertex="1">
                    <mxGeometry x="200" y="120" width="170" height="80" as="geometry"/>
                </mxCell>
                <mxCell id="5" value="добавяне на елемент" style="rounded=0;whiteSpace=wrap;html=1;fillColor=#FFFFFF;strokeColor=#000000;strokeWidth=2;fontSize=17;fontStyle=1;fontColor=#000000;" parent="1" vertex="1">
                    <mxGeometry y="200" width="200" height="60" as="geometry"/>
                </mxCell>
                <mxCell id="6" value="&lt;span style=&quot;font-size: 17px;&quot;&gt;Θ(log(N))&lt;/span&gt;" style="rounded=0;whiteSpace=wrap;html=1;fillColor=#FFFFFF;strokeColor=#000000;strokeWidth=2;fontSize=17;fontStyle=1;fontColor=#000000;" parent="1" vertex="1">
                    <mxGeometry x="200" y="200" width="170" height="60" as="geometry"/>
                </mxCell>
                <mxCell id="8" value="премахване на елемент" style="rounded=0;whiteSpace=wrap;html=1;fillColor=#FFFFFF;strokeColor=#000000;strokeWidth=2;fontSize=17;fontStyle=1;fontColor=#000000;" parent="1" vertex="1">
                    <mxGeometry y="260" width="200" height="60" as="geometry"/>
                </mxCell>
                <mxCell id="9" value="Θ(log(N))" style="rounded=0;whiteSpace=wrap;html=1;fillColor=#FFFFFF;strokeColor=#000000;strokeWidth=2;fontSize=17;fontStyle=1;fontColor=#000000;" parent="1" vertex="1">
                    <mxGeometry x="200" y="260" width="170" height="60" as="geometry"/>
                </mxCell>
                <mxCell id="11" value="търсене на елемент" style="rounded=0;whiteSpace=wrap;html=1;fillColor=#FFFFFF;strokeColor=#000000;strokeWidth=2;fontSize=17;fontStyle=1;fontColor=#000000;" parent="1" vertex="1">
                    <mxGeometry y="320" width="200" height="60" as="geometry"/>
                </mxCell>
                <mxCell id="12" value="Θ(N)" style="rounded=0;whiteSpace=wrap;html=1;fillColor=#FFFFFF;strokeColor=#000000;strokeWidth=2;fontSize=17;fontStyle=1;fontColor=#000000;" parent="1" vertex="1">
                    <mxGeometry x="200" y="320" width="170" height="60" as="geometry"/>
                </mxCell>
                <mxCell id="14" value="достъп до елемента с най-голям приоритет&amp;nbsp;" style="rounded=0;whiteSpace=wrap;html=1;fillColor=#FFFFFF;strokeColor=#000000;strokeWidth=2;fontSize=17;fontStyle=1;fontColor=#000000;" parent="1" vertex="1">
                    <mxGeometry y="380" width="200" height="60" as="geometry"/>
                </mxCell>
                <mxCell id="15" value="Θ(1)" style="rounded=0;whiteSpace=wrap;html=1;fillColor=#FFFFFF;strokeColor=#000000;strokeWidth=2;fontSize=17;fontStyle=1;fontColor=#000000;" parent="1" vertex="1">
                    <mxGeometry x="200" y="380" width="170" height="60" as="geometry"/>
                </mxCell>
                <mxCell id="16" value="Text" style="text;html=1;strokeColor=none;fillColor=none;align=center;verticalAlign=middle;whiteSpace=wrap;rounded=0;" vertex="1" parent="1">
                    <mxGeometry x="255" y="80" width="60" height="30" as="geometry"/>
                </mxCell>
                <mxCell id="17" value="Text" style="text;html=1;strokeColor=none;fillColor=none;align=center;verticalAlign=middle;whiteSpace=wrap;rounded=0;" vertex="1" parent="1">
                    <mxGeometry x="-70" y="260" width="60" height="30" as="geometry"/>
                </mxCell>
                <mxCell id="18" value="Text" style="text;html=1;strokeColor=none;fillColor=none;align=center;verticalAlign=middle;whiteSpace=wrap;rounded=0;" vertex="1" parent="1">
                    <mxGeometry x="230" y="450" width="60" height="30" as="geometry"/>
                </mxCell>
                <mxCell id="19" value="Text" style="text;html=1;strokeColor=none;fillColor=none;align=center;verticalAlign=middle;whiteSpace=wrap;rounded=0;" vertex="1" parent="1">
                    <mxGeometry x="380" y="275" width="60" height="30" as="geometry"/>
                </mxCell>
            </root>
        </mxGraphModel>
    </diagram>
</mxfile>